<svg xmlns="http://www.w3.org/2000/svg" version="1.1" xmlns:xlink="http://www.w3.org/1999/xlink" xmlns:svgjs="http://svgjs.com/svgjs" width="1920" height="1080" preserveAspectRatio="none" viewBox="0 0 1920 1080"><g mask="url(&quot;#SvgjsMask1022&quot;)" fill="none"><rect width="1920" height="1080" x="0" y="0" fill="rgba(233, 212, 241, 1)"></rect><path d="M0,779.656C146.528,759.827,171.955,541.043,297.36,462.701C425.514,382.642,637.599,455.279,720.973,329.257C801.424,207.652,704.127,45.092,666.91,-95.887C633.712,-221.641,612.656,-360.086,516.015,-447.13C422.696,-531.182,277.489,-502.113,161.753,-550.881C24.782,-608.597,-75.459,-778.805,-222.687,-758.401C-367.072,-738.391,-438.294,-572.182,-525.784,-455.594C-607.514,-346.682,-686.269,-235.925,-714.695,-102.758C-744.436,36.566,-759.168,190.535,-690.336,315.266C-622.837,437.583,-469.927,472.871,-354.009,550.849C-235.017,630.895,-142.115,798.888,0,779.656" fill="#c690db"></path><path d="M1920 1941.345C2083.54 1956.893 2239.749 1881.2350000000001 2380.754 1796.9470000000001 2525.324 1710.528 2661.052 1603.453 2736.867 1453.051 2814.251 1299.536 2862.381 1115.1 2806.3959999999997 952.5550000000001 2752.448 795.923 2563.808 741.146 2450.1549999999997 620.6179999999999 2343.062 507.04600000000005 2305.353 320.332 2159.01 266.00800000000004 2011.713 211.33000000000004 1852.733 293.62199999999996 1703.758 343.547 1560.003 391.72299999999996 1419.0720000000001 446.25699999999995 1309.251 550.783 1191.9270000000001 662.45 1083.3980000000001 796.0799999999999 1059.923 956.34 1036.426 1116.752 1099.307 1277.638 1182.3890000000001 1416.856 1259.846 1546.6480000000001 1389.125 1626.7930000000001 1512.307 1714.383 1641.686 1806.38 1761.961 1926.3200000000002 1920 1941.345" fill="#ffffff"></path></g><defs><mask id="SvgjsMask1022"><rect width="1920" height="1080" fill="#ffffff"></rect></mask></defs></svg>